<?xml version="1.0" standalone="no"?>
<!DOCTYPE svg PUBLIC "-//W3C//DTD SVG 20010904//EN"
 "http://www.w3.org/TR/2001/REC-SVG-20010904/DTD/svg10.dtd">
<svg version="1.0" xmlns="http://www.w3.org/2000/svg"
 width="439.000000pt" height="439.000000pt" viewBox="0 0 439.000000 439.000000"
 preserveAspectRatio="xMidYMid meet">
<metadata>
Created by potrace 1.11, written by Peter Selinger 2001-2013
</metadata>
<g transform="translate(0.000000,439.000000) scale(0.100000,-0.100000)"
fill="#000000" stroke="none">
<path d="M857 4355 c-31 -8 -71 -22 -89 -31 l-32 -16 545 -542 c309 -308 563
-553 589 -568 65 -38 92 -45 515 -133 11 -3 61 -13 110 -24 50 -11 155 -34
235 -51 137 -29 250 -54 295 -65 100 -25 211 -9 269 38 l29 23 -139 104 c-629
472 -1240 869 -1799 1170 -74 40 -188 84 -246 95 -76 14 -224 14 -282 0z"/>
<path d="M558 4103 c-36 -80 -49 -153 -47 -253 3 -149 69 -382 113 -401 18 -7
250 -59 336 -76 14 -2 66 -13 115 -24 50 -11 110 -24 135 -29 25 -5 76 -16
115 -25 90 -19 105 -19 105 3 0 9 -187 204 -423 440 l-424 424 -25 -59z"/>
<path d="M654 3285 c8 -22 63 -290 72 -355 4 -30 8 -57 9 -60 1 -3 5 -34 9
-70 7 -53 22 -92 84 -210 41 -80 78 -149 82 -155 4 -5 38 -68 75 -140 37 -71
75 -143 85 -160 10 -16 46 -84 80 -150 35 -66 66 -124 70 -130 4 -5 31 -57 61
-115 55 -108 89 -150 123 -150 24 0 95 34 122 58 10 9 62 48 114 87 52 38 97
72 100 75 3 3 30 23 60 45 30 22 60 43 65 48 6 4 116 87 245 183 129 96 243
185 252 197 21 27 23 66 4 93 -37 52 -662 662 -704 687 -41 24 -89 41 -142 52
-62 13 -313 67 -345 75 -35 9 -133 30 -215 46 -14 3 -45 10 -70 15 -25 6 -54
13 -65 15 -38 7 -60 12 -105 23 -62 15 -73 14 -66 -4z"/>
<path d="M2110 2964 c0 -12 89 -108 219 -238 233 -233 246 -242 321 -223 20 4
102 58 185 120 122 91 151 117 153 140 3 21 -2 29 -20 36 -20 7 -218 53 -292
67 -29 5 -41 8 -191 42 -71 17 -146 33 -165 36 -19 3 -51 10 -70 16 -19 6 -59
13 -87 16 -47 6 -53 4 -53 -12z"/>
<path d="M3363 2699 c-29 -4 -70 -15 -90 -26 -42 -20 -395 -278 -443 -323 -34
-32 -39 -72 -15 -107 9 -12 168 -175 355 -361 l340 -340 47 41 c218 188 311
358 318 577 5 160 -26 270 -117 416 -34 55 -43 63 -83 73 -49 12 -167 38 -217
46 -17 3 -34 7 -37 9 -3 1 -30 -1 -58 -5z"/>
<path d="M783 2122 c0 -80 -12 -303 -18 -331 -1 -9 -6 -52 -10 -96 -4 -44 -10
-99 -15 -123 -4 -23 -5 -44 -1 -46 9 -5 52 -15 94 -21 20 -4 89 -16 153 -29
65 -12 128 -21 140 -18 36 7 37 41 2 107 -43 83 -139 266 -230 435 -20 36 -50
93 -68 128 -18 34 -35 64 -39 66 -4 3 -7 -30 -8 -72z"/>
<path d="M2495 2101 c-25 -15 -297 -216 -395 -291 -15 -12 -136 -102 -269
-201 -133 -98 -244 -186 -248 -195 -14 -38 34 -61 167 -79 25 -3 52 -8 60 -10
8 -2 26 -6 40 -9 47 -8 145 -26 170 -31 14 -3 41 -8 60 -11 19 -3 69 -12 110
-20 41 -8 102 -19 135 -25 33 -6 80 -15 105 -19 25 -5 109 -21 187 -35 79 -14
153 -28 165 -31 13 -2 53 -9 90 -15 l66 -12 196 147 c108 81 196 150 196 153
0 7 -621 624 -678 674 -40 35 -109 40 -157 10z"/>
<path d="M694 1272 c-3 -20 -21 -94 -39 -164 -17 -70 -27 -124 -21 -121 6 4
73 54 149 111 184 138 191 160 62 186 -147 30 -143 31 -151 -12z"/>
<path d="M1218 1150 c-40 -28 -152 -109 -248 -181 -96 -72 -186 -139 -200
-149 -14 -11 -74 -56 -135 -101 -60 -45 -113 -86 -116 -91 -11 -17 -7 -178 6
-243 47 -224 237 -371 473 -364 66 2 100 7 180 24 38 9 144 51 202 80 48 24
322 181 377 215 l21 14 -32 60 c-51 94 -118 221 -176 331 -51 97 -87 166 -165
310 -40 74 -91 145 -105 145 -5 0 -41 -23 -82 -50z"/>
<path d="M1658 1119 c-29 -16 -21 -45 41 -163 32 -61 80 -151 106 -201 26 -49
51 -94 55 -100 4 -5 27 -47 50 -93 23 -46 48 -86 55 -88 13 -5 51 18 403 251
278 184 311 207 312 216 0 4 -160 36 -275 55 -16 2 -75 13 -130 24 -55 11
-140 27 -190 35 -49 9 -112 20 -140 25 -155 28 -223 40 -245 45 -14 2 -33 0
-42 -6z"/>
</g>
</svg>
