<svg xmlns="http://www.w3.org/2000/svg" viewBox="0 0 327.9 104.6"><linearGradient id="a" gradientUnits="userSpaceOnUse" x1="-3.744" y1="18.065" x2="45.304" y2="90.782"><stop offset="0" stop-color="#2360b1"/><stop offset=".25" stop-color="#256fbf"/><stop offset=".559" stop-color="#2360b1"/><stop offset=".8" stop-color="#a02d6e"/><stop offset=".9" stop-color="#f3506f"/><stop offset="1" stop-color="#fcb450"/></linearGradient><path d="M27.4 79.9l7.5 14c5.9-3.7 11.7-7.5 17.4-11.5l-23.5-4.3c-1.5-.3-2.1.5-1.4 1.8z" fill="url(#a)"/><linearGradient id="b" gradientUnits="userSpaceOnUse" x1="-26.289" y1="33.272" x2="22.759" y2="105.988"><stop offset="0" stop-color="#2360b1"/><stop offset=".25" stop-color="#256fbf"/><stop offset=".559" stop-color="#2360b1"/><stop offset=".8" stop-color="#a02d6e"/><stop offset=".9" stop-color="#f3506f"/><stop offset="1" stop-color="#fcb450"/></linearGradient><path d="M19.1 76.3c-.3-.1-1.4.6-2.6 1.5L.2 89.9c-1.7 12.3 8.6 19.3 22.4 11.2l7.8-4.5-9.5-17.9c-.8-1.3-1.5-2.4-1.8-2.4z" fill="url(#b)"/><linearGradient id="c" gradientUnits="userSpaceOnUse" x1="31.156" y1="-5.475" x2="80.204" y2="67.242"><stop offset="0" stop-color="#2360b1"/><stop offset=".25" stop-color="#256fbf"/><stop offset=".559" stop-color="#2360b1"/><stop offset=".8" stop-color="#a02d6e"/><stop offset=".9" stop-color="#f3506f"/><stop offset="1" stop-color="#fcb450"/></linearGradient><path d="M65.6 41.2L56 48.3c-1.2.9-1.3 2.4-.2 3.4L72 67.9c10.1-7.5 11.5-17.7 4.9-26.3l-6.5-1.4c-1.5-.3-3.6.1-4.8 1z" fill="url(#c)"/><linearGradient id="d" gradientUnits="userSpaceOnUse" x1="6.218" y1="11.346" x2="55.266" y2="84.062"><stop offset="0" stop-color="#2360b1"/><stop offset=".25" stop-color="#256fbf"/><stop offset=".559" stop-color="#2360b1"/><stop offset=".8" stop-color="#a02d6e"/><stop offset=".9" stop-color="#f3506f"/><stop offset="1" stop-color="#fcb450"/></linearGradient><path d="M51.6 54.9c-1-1-2.8-1.1-4-.3L26.4 70.4c-1.2.9-.9 1.8.5 2l31.3 5.8c3.2-2.3 6.4-4.7 9.6-7.2L51.6 54.9z" fill="url(#d)"/><linearGradient id="e" gradientUnits="userSpaceOnUse" x1="24.063" y1="-.691" x2="73.111" y2="72.026"><stop offset="0" stop-color="#2360b1"/><stop offset=".25" stop-color="#256fbf"/><stop offset=".559" stop-color="#2360b1"/><stop offset=".8" stop-color="#a02d6e"/><stop offset=".9" stop-color="#f3506f"/><stop offset="1" stop-color="#fcb450"/></linearGradient><path d="M58.4 37.6l-18.7-4.1c-1.4-.3-1.7.3-.7 1.3l9.4 9.4c1 1 2.8 1.1 4 .3l6.5-4.8c1.1-.8.9-1.8-.5-2.1z" fill="url(#e)"/><linearGradient id="f" gradientUnits="userSpaceOnUse" x1="4.578" y1="12.452" x2="53.626" y2="85.168"><stop offset="0" stop-color="#2360b1"/><stop offset=".25" stop-color="#256fbf"/><stop offset=".559" stop-color="#2360b1"/><stop offset=".8" stop-color="#a02d6e"/><stop offset=".9" stop-color="#f3506f"/><stop offset="1" stop-color="#fcb450"/></linearGradient><path d="M21.5 24.8L1.8 5.1c-2.4 4-2.6 10.1.6 17l18.4 4c1.4.3 1.7-.3.7-1.3z" fill="url(#f)"/><linearGradient id="g" gradientUnits="userSpaceOnUse" x1="-16.565" y1="26.713" x2="32.483" y2="99.43"><stop offset="0" stop-color="#2360b1"/><stop offset=".25" stop-color="#256fbf"/><stop offset=".559" stop-color="#2360b1"/><stop offset=".8" stop-color="#a02d6e"/><stop offset=".9" stop-color="#f3506f"/><stop offset="1" stop-color="#fcb450"/></linearGradient><path d="M15.2 68.2L6.6 52c0 5.5-.4 11-1.2 16.4l8.4 1.6c1.5.3 2.1-.6 1.4-1.8z" fill="url(#g)"/><linearGradient id="h" gradientUnits="userSpaceOnUse" x1="24.221" y1="-.797" x2="73.268" y2="71.919"><stop offset="0" stop-color="#2360b1"/><stop offset=".25" stop-color="#256fbf"/><stop offset=".559" stop-color="#2360b1"/><stop offset=".8" stop-color="#a02d6e"/><stop offset=".9" stop-color="#f3506f"/><stop offset="1" stop-color="#fcb450"/></linearGradient><path d="M35.4 29.3L61.9 35c1.4.3 3.5-.1 4.7-1l.9-.7c-14.5-11-28.9-21-45-29.8-6.9-4.1-12.9-4.3-17-2L31 26.9c1 1 3 2.1 4.4 2.4z" fill="url(#h)"/><linearGradient id="i" gradientUnits="userSpaceOnUse" x1="-24.666" y1="32.177" x2="24.382" y2="104.894"><stop offset="0" stop-color="#2360b1"/><stop offset=".25" stop-color="#256fbf"/><stop offset=".559" stop-color="#2360b1"/><stop offset=".8" stop-color="#a02d6e"/><stop offset=".9" stop-color="#f3506f"/><stop offset="1" stop-color="#fcb450"/></linearGradient><path d="M9 74.4l-4.4-.8c-.5 2.7-1.1 5.3-1.9 7.9l6.7-5c1.2-.9 1-1.8-.4-2.1z" fill="url(#i)"/><linearGradient id="j" gradientUnits="userSpaceOnUse" x1="2.979" y1="13.53" x2="52.027" y2="86.247"><stop offset="0" stop-color="#2360b1"/><stop offset=".25" stop-color="#256fbf"/><stop offset=".559" stop-color="#2360b1"/><stop offset=".8" stop-color="#a02d6e"/><stop offset=".9" stop-color="#f3506f"/><stop offset="1" stop-color="#fcb450"/></linearGradient><path d="M19.8 65.6c.7 1.3 2.2 1.6 3.3.7l20.8-15.5c1.2-.9 1.3-2.4.2-3.4L29.5 32.8c-1-1-3-2.1-4.4-2.4L3.4 25.7c1.1 4.5 1.9 9.1 2.5 13.8l13.9 26.1z" fill="url(#j)"/><path d="M166.1 51.5c0 14.4-10.7 24.5-26.2 24.5h-20.4V27h20.8c15.2 0 25.8 10 25.8 24.5zm-11.3 0c0-9-6.3-15.3-14.7-15.3h-9.5v30.4h10c8.2.1 14.2-6.1 14.2-15.1zm68.6 0c0 14.1-11.3 25-26.3 25s-26.3-10.8-26.3-25c0-14.3 11.3-24.9 26.3-24.9s26.3 10.7 26.3 24.9zm-41.3 0c0 8.6 6.9 15.3 15.1 15.3S212 60.1 212 51.5c0-8.6-6.7-15.2-14.8-15.2-8.3 0-15.1 6.6-15.1 15.2zM260.8 76L253 62h-11.2v14h-11.1V27H252c12.8 0 20.1 6.2 20.1 17 0 7.6-3.2 13-9.2 15.8L273.3 76h-12.5zm-19.1-23.3h10.2c6.1 0 9.6-2.8 9.6-8.4 0-5.5-3.5-8.2-9.6-8.2h-10.2v16.6zM318.6 27v9.2h-26.3v10.6H316V56h-23.6v10.9h27V76h-38.1V27h37.3z" fill="#fff"/></svg>