<svg xmlns="http://www.w3.org/2000/svg" viewBox="0 0 80.9 104.6"><linearGradient id="a" gradientUnits="userSpaceOnUse" x1="-3.743" y1="18.083" x2="45.305" y2="90.8"><stop offset="0" stop-color="#2360b1"/><stop offset=".25" stop-color="#256fbf"/><stop offset=".559" stop-color="#2360b1"/><stop offset=".8" stop-color="#a02d6e"/><stop offset=".9" stop-color="#f3506f"/><stop offset="1" stop-color="#fcb450"/></linearGradient><path d="M27.4 79.9l7.5 14c5.9-3.7 11.7-7.5 17.4-11.5l-23.5-4.3c-1.5-.3-2.1.5-1.4 1.8z" fill="url(#a)"/><linearGradient id="b" gradientUnits="userSpaceOnUse" x1="-26.288" y1="33.29" x2="22.76" y2="106.006"><stop offset="0" stop-color="#2360b1"/><stop offset=".25" stop-color="#256fbf"/><stop offset=".559" stop-color="#2360b1"/><stop offset=".8" stop-color="#a02d6e"/><stop offset=".9" stop-color="#f3506f"/><stop offset="1" stop-color="#fcb450"/></linearGradient><path d="M19.1 76.3c-.3-.1-1.4.6-2.6 1.5L.2 89.9c-1.7 12.3 8.6 19.3 22.4 11.2l7.8-4.5-9.5-17.9c-.8-1.3-1.5-2.3-1.8-2.4z" fill="url(#b)"/><linearGradient id="c" gradientUnits="userSpaceOnUse" x1="31.157" y1="-5.457" x2="80.204" y2="67.259"><stop offset="0" stop-color="#2360b1"/><stop offset=".25" stop-color="#256fbf"/><stop offset=".559" stop-color="#2360b1"/><stop offset=".8" stop-color="#a02d6e"/><stop offset=".9" stop-color="#f3506f"/><stop offset="1" stop-color="#fcb450"/></linearGradient><path d="M65.6 41.2L56 48.3c-1.2.9-1.3 2.4-.2 3.4L72 67.9c10.1-7.5 11.5-17.7 4.9-26.3l-6.5-1.4c-1.5-.3-3.6.2-4.8 1z" fill="url(#c)"/><linearGradient id="d" gradientUnits="userSpaceOnUse" x1="6.219" y1="11.364" x2="55.267" y2="84.08"><stop offset="0" stop-color="#2360b1"/><stop offset=".25" stop-color="#256fbf"/><stop offset=".559" stop-color="#2360b1"/><stop offset=".8" stop-color="#a02d6e"/><stop offset=".9" stop-color="#f3506f"/><stop offset="1" stop-color="#fcb450"/></linearGradient><path d="M51.6 54.9c-1-1-2.8-1.1-4-.3L26.4 70.4c-1.2.9-.9 1.8.5 2l31.3 5.8c3.2-2.3 6.4-4.7 9.6-7.2L51.6 54.9z" fill="url(#d)"/><linearGradient id="e" gradientUnits="userSpaceOnUse" x1="24.064" y1="-.673" x2="73.112" y2="72.044"><stop offset="0" stop-color="#2360b1"/><stop offset=".25" stop-color="#256fbf"/><stop offset=".559" stop-color="#2360b1"/><stop offset=".8" stop-color="#a02d6e"/><stop offset=".9" stop-color="#f3506f"/><stop offset="1" stop-color="#fcb450"/></linearGradient><path d="M58.4 37.6l-18.7-4.1c-1.4-.3-1.7.3-.7 1.3l9.4 9.4c1 1 2.8 1.1 4 .3l6.5-4.8c1.1-.8.9-1.8-.5-2.1z" fill="url(#e)"/><linearGradient id="f" gradientUnits="userSpaceOnUse" x1="4.579" y1="12.47" x2="53.627" y2="85.186"><stop offset="0" stop-color="#2360b1"/><stop offset=".25" stop-color="#256fbf"/><stop offset=".559" stop-color="#2360b1"/><stop offset=".8" stop-color="#a02d6e"/><stop offset=".9" stop-color="#f3506f"/><stop offset="1" stop-color="#fcb450"/></linearGradient><path d="M21.5 24.8L1.8 5.1c-2.4 4-2.6 10.1.6 17l18.4 4c1.4.3 1.7-.2.7-1.3z" fill="url(#f)"/><linearGradient id="g" gradientUnits="userSpaceOnUse" x1="-16.564" y1="26.731" x2="32.483" y2="99.448"><stop offset="0" stop-color="#2360b1"/><stop offset=".25" stop-color="#256fbf"/><stop offset=".559" stop-color="#2360b1"/><stop offset=".8" stop-color="#a02d6e"/><stop offset=".9" stop-color="#f3506f"/><stop offset="1" stop-color="#fcb450"/></linearGradient><path d="M15.2 68.2L6.6 52c0 5.5-.4 11-1.2 16.4l8.4 1.6c1.5.3 2.1-.5 1.4-1.8z" fill="url(#g)"/><linearGradient id="h" gradientUnits="userSpaceOnUse" x1="24.221" y1="-.779" x2="73.269" y2="71.937"><stop offset="0" stop-color="#2360b1"/><stop offset=".25" stop-color="#256fbf"/><stop offset=".559" stop-color="#2360b1"/><stop offset=".8" stop-color="#a02d6e"/><stop offset=".9" stop-color="#f3506f"/><stop offset="1" stop-color="#fcb450"/></linearGradient><path d="M35.4 29.3L61.9 35c1.4.3 3.5-.1 4.7-1l.9-.7c-14.5-11-28.9-21-45-29.8-6.9-4.1-12.9-4.3-17-2L31 26.9c1 1 3 2.1 4.4 2.4z" fill="url(#h)"/><linearGradient id="i" gradientUnits="userSpaceOnUse" x1="-24.665" y1="32.195" x2="24.383" y2="104.912"><stop offset="0" stop-color="#2360b1"/><stop offset=".25" stop-color="#256fbf"/><stop offset=".559" stop-color="#2360b1"/><stop offset=".8" stop-color="#a02d6e"/><stop offset=".9" stop-color="#f3506f"/><stop offset="1" stop-color="#fcb450"/></linearGradient><path d="M9 74.4l-4.4-.8c-.5 2.7-1.1 5.3-1.9 7.9l6.7-5c1.2-.9 1-1.8-.4-2.1z" fill="url(#i)"/><linearGradient id="j" gradientUnits="userSpaceOnUse" x1="2.98" y1="13.549" x2="52.028" y2="86.265"><stop offset="0" stop-color="#2360b1"/><stop offset=".25" stop-color="#256fbf"/><stop offset=".559" stop-color="#2360b1"/><stop offset=".8" stop-color="#a02d6e"/><stop offset=".9" stop-color="#f3506f"/><stop offset="1" stop-color="#fcb450"/></linearGradient><path d="M19.8 65.6c.7 1.3 2.2 1.6 3.3.7l20.8-15.5c1.2-.9 1.3-2.4.2-3.4L29.5 32.8c-1-1-3-2.1-4.4-2.4L3.4 25.7c1.1 4.5 1.9 9.1 2.5 13.8l13.9 26.1z" fill="url(#j)"/></svg>